<svg width="32" height="32" viewBox="0 0 32 32" fill="none" xmlns="http://www.w3.org/2000/svg">
<g clip-path="url(#clip0_607_1666)">
<path d="M12.8315 13.5169L12.831 13.5279V13.539C12.831 13.9275 12.7209 14.0967 12.601 14.1835L12.8943 14.5884L12.598 14.1857C12.4078 14.3256 12.1437 14.4128 11.7843 14.4101V14.4101H11.7805H9.70417V12.7119H11.5841V12.7119L11.5919 12.7118C11.7724 12.709 11.9589 12.7259 12.1454 12.7609L12.1544 12.7626L12.1635 12.7639C12.2969 12.7839 12.4249 12.8302 12.5402 12.9001L12.5402 12.9001L12.5448 12.9028C12.6321 12.9545 12.7015 13.0252 12.7488 13.1071C12.8096 13.2351 12.8378 13.3745 12.8315 13.5169ZM11.9125 19.3291H9.6974V17.1468H11.9667C12.4455 17.1468 12.7705 17.2552 12.9896 17.4228C13.1574 17.5518 13.2982 17.7968 13.2982 18.3056C13.2982 18.5529 13.2563 18.7171 13.2032 18.8213C13.136 18.9458 13.0542 19.032 12.9578 19.0944L12.9572 19.0948C12.8275 19.179 12.6827 19.2376 12.5309 19.2673L12.5309 19.2672L12.5246 19.2685C12.3335 19.3085 12.1343 19.3291 11.9125 19.3291ZM18.9271 10.0463H18.4271V10.5463V11.6871V12.1871H18.9271H23.6125H24.1125V11.6871V10.5463V10.0463H23.6125H18.9271ZM15.37 21.4144L15.37 21.4145L15.3762 21.41C15.8207 21.0909 16.185 20.6729 16.4402 20.189C16.6134 19.8655 16.7264 19.5106 16.7861 19.1284C16.8265 19.2791 16.8734 19.4283 16.9266 19.5756L16.9266 19.5758C17.1363 20.156 17.4605 20.6882 17.8799 21.1406L17.8799 21.1407L17.8869 21.148C18.317 21.5934 18.8383 21.938 19.4154 22.1635L19.4163 22.1639C20.0112 22.395 20.6657 22.5127 21.3815 22.5127C22.4029 22.5127 23.3149 22.2778 24.0748 21.7818C24.8691 21.2678 25.419 20.4379 25.7674 19.3599L25.9788 18.7062H25.2917H23.2672H22.8914L22.7869 19.0671C22.7567 19.1716 22.6544 19.3345 22.3695 19.5333C22.1234 19.7028 21.829 19.7963 21.4526 19.7963C20.8934 19.7963 20.5411 19.6518 20.3165 19.4348C20.1655 19.2843 20.0241 19.0083 19.9505 18.6668H25.4372V18.1668L25.9363 18.198C25.9798 17.5019 25.9258 16.8342 25.7668 16.1944L25.7659 16.1911C25.5995 15.5404 25.3338 14.952 24.9493 14.4305L24.9487 14.4296C24.5585 13.9029 24.0525 13.4728 23.4697 13.1727C22.852 12.8523 22.1551 12.7042 21.3809 12.7038C20.7148 12.6967 20.0559 12.8248 19.4421 13.0809L19.4399 13.0818C18.2813 13.5718 17.3727 14.5178 16.9351 15.7005C16.7708 16.1388 16.6654 16.5992 16.6205 17.0818C16.5233 16.8054 16.3924 16.5448 16.226 16.3013C15.9823 15.9429 15.6686 15.6505 15.2915 15.4231C15.4944 15.2502 15.6702 15.0567 15.8184 14.8411L15.82 14.8386C16.1519 14.3494 16.3023 13.7651 16.3023 13.1056C16.3023 12.5137 16.2022 11.9806 15.9846 11.5329L15.9838 11.5312C15.7675 11.0906 15.4573 10.7289 15.0623 10.4586L15.0603 10.4572C14.6763 10.1973 14.2287 10.0113 13.7176 9.90448L13.7169 9.90433C13.2233 9.80196 12.688 9.74834 12.1055 9.74834H6.65495H6.15495V10.2483V21.796V22.296H6.65495H12.2595C12.8122 22.3 13.363 22.2297 13.897 22.0869C14.4255 21.9534 14.9228 21.7251 15.37 21.4144ZM22.5267 16.2179H20.0161C20.0595 16.1023 20.1215 15.9945 20.1998 15.8985C20.3015 15.7764 20.4437 15.6605 20.63 15.562C20.7738 15.486 20.995 15.4304 21.307 15.4304C21.7815 15.4304 22.0845 15.5655 22.2454 15.7323C22.3536 15.8556 22.4529 16.0146 22.5267 16.2179ZM1.33203 16.0002C1.33203 7.90078 7.89932 1.3335 15.9987 1.3335C24.0981 1.3335 30.6654 7.90078 30.6654 16.0002C30.6654 24.0995 24.0981 30.6668 15.9987 30.6668C7.89932 30.6668 1.33203 24.0995 1.33203 16.0002Z" stroke="white"/>
</g>
<defs>
<clipPath id="clip0_607_1666">
<rect width="32" height="32" fill="white"/>
</clipPath>
</defs>
</svg>
