<svg width="32" height="32" viewBox="0 0 32 32" fill="none" xmlns="http://www.w3.org/2000/svg">
<g clip-path="url(#clip0_607_533)">
<path d="M12.8943 14.5884C13.1888 14.3752 13.331 14.0231 13.331 13.539C13.3411 13.3088 13.2938 13.0819 13.1922 12.8754C13.1008 12.7095 12.9654 12.5707 12.7995 12.4726C12.6275 12.3683 12.4364 12.2992 12.2375 12.2694C12.0208 12.2288 11.8008 12.2085 11.5841 12.2119H9.20417V14.9101H11.7805C12.224 14.9134 12.5997 14.8051 12.8943 14.5884ZM13.2938 17.0259C12.962 16.772 12.5185 16.6468 11.9667 16.6468H9.1974V19.8291H11.9125C12.1664 19.8291 12.4 19.8054 12.6268 19.758C12.8414 19.716 13.046 19.6333 13.2294 19.5142C13.4021 19.4025 13.5409 19.2502 13.6458 19.0538C13.7474 18.8575 13.7982 18.6069 13.7982 18.3056C13.7982 17.7064 13.6289 17.2832 13.2938 17.0259ZM15.9987 0.833496C7.62318 0.833496 0.832031 7.62464 0.832031 16.0002C0.832031 24.3757 7.62318 31.1668 15.9987 31.1668C24.3742 31.1668 31.1654 24.3757 31.1654 16.0002C31.1654 7.62464 24.3742 0.833496 15.9987 0.833496ZM18.9271 10.5463H23.6125V11.6871H18.9271V10.5463ZM15.9987 19.9543C15.7795 20.3703 15.4666 20.7296 15.0846 21.0038C14.6852 21.2814 14.2417 21.4845 13.7711 21.603C13.2788 21.735 12.7709 21.7999 12.2612 21.796H6.65495V10.2483H12.1055C12.6573 10.2483 13.1583 10.2991 13.6154 10.3939C14.069 10.4887 14.4549 10.6512 14.7799 10.8713C15.1016 11.0913 15.3555 11.3858 15.5349 11.7515C15.7109 12.1137 15.8023 12.5674 15.8023 13.1056C15.8023 13.6879 15.6703 14.1687 15.4063 14.558C15.1388 14.9473 14.7529 15.2621 14.2281 15.5093C14.9424 15.7124 15.4672 16.0746 15.8125 16.5825C16.1646 17.097 16.3372 17.7132 16.3372 18.4377C16.3372 19.0267 16.2255 19.5312 15.9987 19.9543ZM25.4372 18.1668H19.3977C19.3977 18.8236 19.6245 19.4533 19.9664 19.7918C20.3117 20.127 20.806 20.2963 21.4526 20.2963C21.9198 20.2963 22.3159 20.1778 22.6544 19.9442C22.9896 19.7106 23.1927 19.4634 23.2672 19.2062H25.2917C24.9667 20.2116 24.4724 20.9293 23.8021 21.3627C23.1385 21.796 22.326 22.0127 21.3815 22.0127C20.7214 22.0127 20.1289 21.9043 19.5974 21.6978C19.0862 21.4981 18.6258 21.1934 18.2466 20.8007C17.8728 20.3974 17.5838 19.9231 17.3969 19.4059C17.1904 18.8338 17.0888 18.2312 17.0956 17.6252C17.0956 16.9989 17.2005 16.4166 17.4036 15.8749C17.793 14.822 18.6021 13.9791 19.6346 13.5424C20.1865 13.3121 20.7789 13.197 21.3781 13.2038C22.0891 13.2038 22.7052 13.3392 23.2401 13.6168C23.755 13.8819 24.2022 14.2618 24.5469 14.7272C24.8888 15.191 25.1292 15.7192 25.2815 16.315C25.4271 16.9007 25.4779 17.5168 25.4372 18.1668ZM21.307 14.9304C20.9414 14.9304 20.6333 14.9947 20.3964 15.12C20.1594 15.2452 19.963 15.4009 19.8141 15.5804C19.6722 15.7536 19.5674 15.9541 19.506 16.1694C19.4518 16.3489 19.4146 16.5317 19.401 16.7179H23.1419C23.0878 16.1322 22.8846 15.6989 22.6138 15.3942C22.3294 15.0929 21.8724 14.9304 21.307 14.9304Z" fill="white"/>
</g>
<defs>
<clipPath id="clip0_607_533">
<rect width="32" height="32" fill="white"/>
</clipPath>
</defs>
</svg>
