<svg width="32" height="32" viewBox="0 0 32 32" fill="none" xmlns="http://www.w3.org/2000/svg">
<g clip-path="url(#clip0_607_1662)">
<path d="M24.1021 11.2228L24.1585 10.9572L24.1459 10.9446C24.2001 10.439 24.092 9.97852 23.7681 9.6629C23.3797 9.28444 22.8333 9.26083 22.3675 9.42859L22.3675 9.42847L22.3571 9.43249L7.41309 15.1955L7.41123 15.1962C7.12204 15.3091 6.87392 15.4458 6.68633 15.6107C6.50139 15.7732 6.33621 15.9994 6.31137 16.2861C6.28514 16.5887 6.42474 16.8383 6.60823 17.0107C6.78461 17.1765 7.01817 17.2912 7.26765 17.3699L7.26901 17.3703L11.094 18.5643L11.3142 18.633L11.5094 18.5101L17.6609 14.6376L13.0838 18.773L12.9342 18.9081L12.9202 19.1092L12.6452 23.0532L12.6079 23.588H13.144C13.4251 23.588 13.6568 23.5244 13.8586 23.407C14.0354 23.3042 14.1709 23.1684 14.2654 23.0737C14.2688 23.0704 14.2721 23.0671 14.2753 23.0638L15.837 21.5598L19.3724 24.1655L19.3965 24.1833L19.4225 24.198C19.8342 24.4313 20.3181 24.5634 20.7693 24.3593C21.2187 24.1561 21.4492 23.7031 21.5572 23.215L21.5581 23.2108L24.1021 11.2228ZM1 16C1 7.71412 7.71316 1 16 1C24.2859 1 31 7.71414 31 16C31 24.2859 24.2868 31 16 31C7.71414 31 1 24.2859 1 16Z" stroke="white"/>
</g>
<defs>
<clipPath id="clip0_607_1662">
<rect width="32" height="32" fill="white"/>
</clipPath>
</defs>
</svg>
