<svg width="32" height="32" viewBox="0 0 32 32" fill="none" xmlns="http://www.w3.org/2000/svg">
<g clip-path="url(#clip0_607_531)">
<path d="M16.0006 0.640137C7.51743 0.640137 0.640625 7.51694 0.640625 16.0001C0.640625 24.4833 7.51743 31.3601 16.0006 31.3601C24.4838 31.3601 31.3606 24.4833 31.3606 16.0001C31.3606 7.51694 24.4838 0.640137 16.0006 0.640137ZM21.9078 17.9697C21.9078 17.9697 23.2662 19.3105 23.6006 19.9329C23.6102 19.9457 23.615 19.9585 23.6182 19.9649C23.7542 20.1937 23.7862 20.3713 23.719 20.5041C23.607 20.7249 23.223 20.8337 23.0918 20.8433H20.6918C20.5254 20.8433 20.1766 20.8001 19.7542 20.5089C19.4294 20.2817 19.1094 19.9089 18.7974 19.5457C18.3318 19.0049 17.9286 18.5377 17.5222 18.5377C17.4706 18.5377 17.4193 18.5457 17.3702 18.5617C17.063 18.6609 16.6694 19.0993 16.6694 20.2673C16.6694 20.6321 16.3814 20.8417 16.1782 20.8417H15.079C14.7046 20.8417 12.7542 20.7105 11.0262 18.8881C8.91103 16.6561 7.00703 12.1793 6.99103 12.1377C6.87103 11.8481 7.11903 11.6929 7.38943 11.6929H9.81343C10.1366 11.6929 10.2422 11.8897 10.3158 12.0641C10.4022 12.2673 10.719 13.0753 11.239 13.9841C12.0822 15.4657 12.599 16.0673 13.0134 16.0673C13.0911 16.0664 13.1674 16.0467 13.2358 16.0097C13.7766 15.7089 13.6758 13.7809 13.6518 13.3809C13.6518 13.3057 13.6502 12.5185 13.3734 12.1409C13.175 11.8673 12.8374 11.7633 12.6326 11.7249C12.7155 11.6106 12.8247 11.5178 12.951 11.4545C13.3222 11.2689 13.991 11.2417 14.655 11.2417H15.0246C15.7446 11.2513 15.9302 11.2977 16.191 11.3633C16.719 11.4897 16.7302 11.8305 16.6838 12.9969C16.6694 13.3281 16.655 13.7025 16.655 14.1441C16.655 14.2401 16.6502 14.3425 16.6502 14.4513C16.6342 15.0449 16.615 15.7185 17.0342 15.9953C17.0889 16.0296 17.1521 16.0479 17.2166 16.0481C17.3622 16.0481 17.8006 16.0481 18.9878 14.0113C19.354 13.3558 19.6721 12.6745 19.9398 11.9729C19.9638 11.9313 20.0342 11.8033 20.1174 11.7537C20.1788 11.7224 20.2469 11.7065 20.3158 11.7073H23.1654C23.4758 11.7073 23.6886 11.7537 23.7286 11.8737C23.799 12.0641 23.7158 12.6449 22.415 14.4065L21.8342 15.1729C20.655 16.7185 20.655 16.7969 21.9078 17.9697Z" fill="white"/>
</g>
<defs>
<clipPath id="clip0_607_531">
<rect width="32" height="32" fill="white"/>
</clipPath>
</defs>
</svg>
