<svg width="40" height="40" viewBox="0 0 40 40" fill="none" xmlns="http://www.w3.org/2000/svg">
<g clip-path="url(#clip0_607_1664)" filter="url(#filter0_d_607_1664)">
<path d="M28.1652 20.7299L28.1649 20.7303C28.0286 20.9991 27.7704 21.1413 27.6152 21.2101C27.4464 21.2848 27.2614 21.3323 27.1283 21.342L27.1101 21.3433H27.0918H24.6918C24.4357 21.3433 23.9854 21.2756 23.4704 20.9206L23.4676 20.9187C23.0911 20.6553 22.7372 20.2431 22.4435 19.9011L22.4185 19.872C22.1788 19.5935 21.9858 19.3711 21.8075 19.2145C21.6244 19.0536 21.5399 19.0384 21.5233 19.0378C21.5147 19.0408 21.4357 19.0731 21.35 19.2411C21.2598 19.4178 21.1694 19.735 21.1694 20.2673C21.1694 20.9054 20.6605 21.3417 20.1782 21.3417H19.079C18.6238 21.3417 16.5186 21.1887 14.6634 19.2322L14.6633 19.2321C13.5564 18.0641 12.5257 16.336 11.7795 14.9253C11.0628 13.5707 10.5842 12.4612 10.5292 12.3291L10.5291 12.3291C10.4696 12.1854 10.441 12.0215 10.4736 11.8519C10.5065 11.6801 10.5947 11.5414 10.7037 11.4403C10.9075 11.2511 11.1771 11.1929 11.3894 11.1929H13.8134C14.0892 11.1929 14.3222 11.2821 14.4996 11.4478C14.658 11.5958 14.7362 11.7743 14.7762 11.8691M28.1652 20.7299L24.3218 11.2074C24.3206 11.2074 24.3194 11.2073 24.3182 11.2073M28.1652 20.7299C28.3487 20.3672 28.2135 19.9953 28.0607 19.7311C28.0602 19.73 28.0596 19.7289 28.059 19.7277C28.0522 19.714 28.0424 19.6956 28.0292 19.6746C27.8205 19.2986 27.3611 18.7739 26.9962 18.3787C26.8013 18.1677 26.6175 17.977 26.4826 17.8392C26.4151 17.7702 26.3596 17.7143 26.3208 17.6754L26.2757 17.6304L26.2636 17.6184L26.2604 17.6152L26.2595 17.6143L26.2592 17.614L26.2591 17.6139L25.9079 17.9697L26.2495 17.6047C25.9296 17.3052 25.723 17.1056 25.5918 16.9422C25.4658 16.7853 25.4595 16.7216 25.4589 16.6983C25.4579 16.6624 25.4701 16.5715 25.6005 16.3549C25.7297 16.1401 25.9324 15.8686 26.2317 15.4762L26.2327 15.4749L26.8135 14.7085L26.8136 14.7086L26.8173 14.7035C27.4767 13.8105 27.8465 13.1919 28.0422 12.7556C28.2237 12.3511 28.3044 11.999 28.2003 11.7078M28.1652 20.7299L28.2003 11.7078M14.7762 11.8691C14.7864 11.8931 14.7993 11.9242 14.8149 11.9617C14.9378 12.2582 15.2277 12.9576 15.673 13.7358L15.6736 13.7368C16.0919 14.4718 16.4129 14.9586 16.6674 15.2568C16.8386 15.4574 16.943 15.5286 16.9899 15.5538C17.0049 15.5252 17.0275 15.4743 17.052 15.3896C17.104 15.2095 17.1381 14.968 17.1568 14.698C17.1939 14.1623 17.1645 13.6072 17.1527 13.4109L17.1518 13.3959V13.3809C17.1518 13.3517 17.1515 13.1626 17.1211 12.9427C17.0877 12.7005 17.0298 12.5179 16.9702 12.4365L16.9686 12.4345C16.9312 12.3828 16.8718 12.3354 16.7883 12.2951C16.7047 12.2548 16.6143 12.2302 16.5405 12.2164L15.7644 12.0709L16.2278 11.4315C16.3578 11.2522 16.529 11.1067 16.7271 11.0075L16.7274 11.0073C16.9966 10.8727 17.3307 10.8127 17.6429 10.7811C17.9655 10.7484 18.3193 10.7417 18.655 10.7417H19.0246H19.0313V10.7418C19.7837 10.7518 20.0092 10.8021 20.3104 10.8778C20.4869 10.9203 20.6749 10.9933 20.8341 11.1383C20.9994 11.2889 21.0887 11.4761 21.1373 11.6665C21.1835 11.8476 21.1977 12.0503 21.2006 12.2604C21.2036 12.4738 21.195 12.7267 21.1834 13.0168L21.1834 13.0187C21.169 13.3477 21.155 13.7135 21.155 14.1441C21.155 14.1992 21.1537 14.255 21.1525 14.3047C21.1513 14.3563 21.1502 14.4036 21.1502 14.4513V14.4648L21.15 14.4648C21.1417 14.7737 21.136 15.0399 21.1724 15.261C21.1945 15.3956 21.2262 15.4742 21.2563 15.5209C21.284 15.5019 21.3226 15.4721 21.3727 15.4259C21.5936 15.2223 21.9694 14.7651 22.5535 13.7635C22.907 13.1303 23.2141 12.4723 23.4727 11.7947L23.4869 11.7575L23.5067 11.7231C23.5075 11.7217 23.5085 11.72 23.5097 11.7178C23.5219 11.6965 23.5559 11.6368 23.5996 11.5757C23.6404 11.5185 23.7279 11.4038 23.8614 11.3243L23.8756 11.3158L23.8903 11.3083C24.0228 11.2408 24.1696 11.2061 24.3182 11.2073M14.7762 11.8691C14.7761 11.8689 14.776 11.8687 14.776 11.8685L14.3158 12.0641L14.7765 11.8697C14.7764 11.8695 14.7763 11.8693 14.7762 11.8691ZM24.3182 11.2073H27.1654C27.3368 11.2073 27.5198 11.2192 27.6807 11.2633C27.814 11.2999 28.0948 11.4038 28.2003 11.7078M24.3182 11.2073L28.2003 11.7078M5.14062 16.0001C5.14062 7.79308 11.7936 1.14014 20.0006 1.14014C28.2077 1.14014 34.8606 7.79308 34.8606 16.0001C34.8606 24.2072 28.2077 30.8601 20.0006 30.8601C11.7936 30.8601 5.14062 24.2072 5.14062 16.0001Z" stroke="white"/>
</g>
<defs>
<filter id="filter0_d_607_1664" x="0" y="0" width="40" height="40" filterUnits="userSpaceOnUse" color-interpolation-filters="sRGB">
<feFlood flood-opacity="0" result="BackgroundImageFix"/>
<feColorMatrix in="SourceAlpha" type="matrix" values="0 0 0 0 0 0 0 0 0 0 0 0 0 0 0 0 0 0 127 0" result="hardAlpha"/>
<feOffset dy="4"/>
<feGaussianBlur stdDeviation="2"/>
<feComposite in2="hardAlpha" operator="out"/>
<feColorMatrix type="matrix" values="0 0 0 0 0 0 0 0 0 0 0 0 0 0 0 0 0 0 0.25 0"/>
<feBlend mode="normal" in2="BackgroundImageFix" result="effect1_dropShadow_607_1664"/>
<feBlend mode="normal" in="SourceGraphic" in2="effect1_dropShadow_607_1664" result="shape"/>
</filter>
<clipPath id="clip0_607_1664">
<rect width="32" height="32" fill="white" transform="translate(4)"/>
</clipPath>
</defs>
</svg>
